<?xml version="1.0" encoding="utf-8"?>
<!-- Generator: Adobe Illustrator 16.0.0, SVG Export Plug-In . SVG Version: 6.00 Build 0)  -->
<!DOCTYPE svg PUBLIC "-//W3C//DTD SVG 1.1//EN" "http://www.w3.org/Graphics/SVG/1.1/DTD/svg11.dtd">
<svg version="1.1" xmlns="http://www.w3.org/2000/svg" xmlns:xlink="http://www.w3.org/1999/xlink" x="0px" y="0px" width="500px"
	 height="500px" viewBox="0 0 500 500" enable-background="new 0 0 500 500" xml:space="preserve">
<g id="背景">
	<g>
		<rect fill="#70A0D4" width="500" height="500"/>
	</g>
</g>
<g id="ロゴ">
	<g>
		<polygon fill="#75C6EF" points="56,362.2 56,137.8 250,25.6 444,137.8 444,362.2 250,474.4 		"/>
		<path fill="#FFAB51" d="M250,26.2l194,111.9v223.8L250,473.8L56,361.9V138.1L250,26.2 M250,25L55,137.5v225L250,475l195-112.5
			v-225L250,25L250,25z"/>
	</g>
	<g>
		<polygon fill="#FFF33B" points="331.9,426.4 65.5,358 72.7,331 339.1,399.4 		"/>
	</g>
	<g>
		<path fill="#FFF33B" d="M160,286.8c-47.6,0-86.3-38.7-86.3-86.3s38.7-86.3,86.3-86.3s86.3,38.7,86.3,86.3S207.6,286.8,160,286.8z"
			/>
		<path fill="#E4007F" d="M160,129.3c39.3,0,71.3,32,71.3,71.3s-32,71.3-71.3,71.3s-71.3-32-71.3-71.3S120.7,129.3,160,129.3
			 M160,99.3c-55.9,0-101.3,45.3-101.3,101.3c0,55.9,45.3,101.3,101.3,101.3s101.3-45.3,101.3-101.3
			C261.3,144.6,215.9,99.3,160,99.3L160,99.3z"/>
	</g>
	<g>
		<circle fill="#E4007F" cx="147.4" cy="184.3" r="36"/>
	</g>
	<g>
		<path fill="#FFAB51" d="M250,53.9l170,98.1v196.1l-170,98.1L80,348.1V151.9L250,53.9 M250,25L55,137.5v225L250,475l195-112.5v-225
			L250,25L250,25z"/>
	</g>
	<g>
		<polygon fill="#FFF33B" points="333.2,427 122.7,372.7 80,332.9 367.9,407 		"/>
	</g>
	<g>
		<path fill="#FFF33B" d="M340,378.5c-47.6,0-86.3-38.7-86.3-86.3S292.4,206,340,206s86.3,38.7,86.3,86.3S387.6,378.5,340,378.5z"/>
		<path fill="#E4007F" d="M340,221c39.3,0,71.3,32,71.3,71.3s-32,71.3-71.3,71.3s-71.3-32-71.3-71.3S300.7,221,340,221 M340,191
			c-55.9,0-101.3,45.3-101.3,101.3c0,55.9,45.3,101.3,101.3,101.3s101.3-45.3,101.3-101.3C441.3,236.4,395.9,191,340,191L340,191z"
			/>
	</g>
	<g>
		<circle fill="#E4007F" cx="327.4" cy="276.1" r="36"/>
	</g>
</g>
</svg>
